<?xml version="1.0" encoding="utf-8"?>
<!-- Generator: Adobe Illustrator 17.1.0, SVG Export Plug-In . SVG Version: 6.00 Build 0)  -->
<!DOCTYPE svg PUBLIC "-//W3C//DTD SVG 1.1//EN" "http://www.w3.org/Graphics/SVG/1.1/DTD/svg11.dtd">
<svg version="1.1" id="Layer_1" xmlns="http://www.w3.org/2000/svg" xmlns:xlink="http://www.w3.org/1999/xlink" x="0px" y="0px"
	 viewBox="0 0 916.744 254.987" enable-background="new 0 0 916.744 254.987" xml:space="preserve">
<g>
	<path d="M103.98,165.861h25.965l6.92-22.195c-11.925,3.324-23.987,6.75-36.185,10.281L103.98,165.861z"/>
	<path d="M69.287,168.262l0.262-5.161c-5.685,1.697-11.399,3.418-17.141,5.161H69.287z"/>
	<path d="M72.124,112.405c0.873-18.329,1.746-41.02,2.401-60.876h0.436c3.709,19.202,8.51,40.148,13.311,57.603l11.102,40.093
		c12.06-4.166,25.409-8.666,39.939-13.405l8.525-27.341c5.674-17.238,11.783-38.185,16.583-56.95h0.436
		c0,21.383,0.654,42.766,1.309,60.44l0.642,15.055c10.014-3.142,20.473-6.356,31.335-9.617L193.004,21.2h-43.639l-15.492,48.875
		c-5.018,16.364-10.037,35.784-13.964,52.802h-0.872c-3.273-17.236-7.637-35.565-12.438-52.584L92.197,21.2H47.904l-9.382,147.062
		h8.018c6.438-2.43,14.194-5.308,23.182-8.56L72.124,112.405z"/>
	<path d="M168.566,168.262h32.292l-2.203-41.247c-10.383,2.7-20.882,5.48-31.492,8.341L168.566,168.262z"/>
	<path d="M255.416,21.2h-33.167v89.093c10.724-3.109,21.785-6.243,33.167-9.384V21.2z"/>
	<path d="M222.249,168.262h33.167v-55.504c-10.918,2.645-21.972,5.379-33.167,8.208V168.262z"/>
	<path d="M275.49,168.262h30.548v-44.293c0-8.024-0.054-15.656-0.16-23.03c-10.001,2.26-20.132,4.6-30.388,7.019V168.262z"/>
	<path d="M369.313,125.497h-0.435c-4.608-11.298-10.035-23.389-15.78-34.857c-9.858,2.073-19.853,4.224-29.983,6.456
		c2.627,5.001,5.258,9.867,7.797,14.437l31.421,56.73h34.909v-86.57c-9.93,1.937-20.009,3.954-30.243,6.057
		C367.36,100.832,368.075,113.253,369.313,125.497z"/>
	<path d="M397.242,21.2h-30.546v42.766c0,2.99,0.014,5.929,0.039,8.837c10.028-2.295,20.203-4.557,30.507-6.779V21.2z"/>
	<path d="M304.51,59.602h0.873c3.311,8.173,7.267,16.736,11.435,25.159c9.647-2.413,19.457-4.808,29.426-7.177
		c-0.456-0.827-0.91-1.677-1.368-2.489L314.328,21.2H275.49v74.256c9.835-2.631,19.879-5.258,30.125-7.869
		C305.369,77.895,305.012,68.623,304.51,59.602z"/>
	<path d="M417.541,168.262h93.606v-27.273h-60.441v-34.911h54.112V79.022h-54.112V71.77c-10.847,1.908-21.903,3.918-33.165,6.034
		V168.262z"/>
	<path d="M450.706,48.474h36.267c6.998-1.225,14.04-2.421,21.118-3.59V21.2h-90.55v40.535c10.923-2.258,21.982-4.464,33.165-6.609
		V48.474z"/>
	<path d="M569.409,20.109c-17.893,0-33.603,1.31-44.294,3.056v18.978c29.348-4.605,59.308-8.681,89.688-12.064
		C604.422,22.963,589.766,20.109,569.409,20.109z"/>
	<path d="M597.556,65.276c0,12.873-9.819,21.164-26.403,21.164h-13.091V55.081c-10.704,1.436-21.683,2.979-32.947,4.64v108.54
		h32.947v-57.821h9.819c13.746,0.218,20.074,5.02,24.219,23.566c4.147,18.108,7.855,29.892,10.038,34.255h34.038
		c-2.837-5.673-7.2-24.873-11.782-41.674c-3.71-13.528-9.383-23.129-19.637-27.274v-0.655c12.655-4.582,25.965-17.455,25.965-36.002
		c0-5.897-0.913-11.212-2.683-15.911c-11.647,1.206-23.728,2.549-36.254,4.05C595.511,54.187,597.556,59.024,597.556,65.276z"/>
	<path d="M669.782,21.2h-36.439l2.144,6.692c11.716-1.174,23.487-2.24,35.302-3.19L669.782,21.2z"/>
	<path d="M714.729,84.04c-5.018,16.802-9.601,34.256-13.31,51.931h-0.655c-3.49-18.329-8.073-34.911-13.091-52.586l-11.808-41.043
		c-11.073,0.888-22.661,1.913-34.756,3.09l39.364,122.83h38.838l44.05-130.791c-10.725,0.306-22.45,0.762-35.148,1.412
		L714.729,84.04z"/>
	<path d="M841.471,37.903c-8.881-0.482-26.9-1.177-53.647-0.909l-39.926,131.268h34.258l10.472-37.747h42.111l11.345,37.747h36.002
		L841.471,37.903z M797.428,105.641l8.728-31.202c2.401-8.51,4.581-19.638,6.764-28.365h0.437c2.182,8.727,4.8,19.637,7.419,28.365
		l9.165,31.202H797.428z"/>
</g>
<text transform="matrix(1 0 0 1 70.4591 232.3141)"><tspan x="0" y="0" font-family="'MyriadPro-SemiCn'" font-size="54" letter-spacing="14">MOBILE</tspan><tspan x="244.78" y="0" font-family="'MyriadPro-SemiCn'" font-size="54" letter-spacing="40"> </tspan><tspan x="295.378" y="0" font-family="'MyriadPro-SemiCn'" font-size="54" letter-spacing="14">TECHNOLOGIES</tspan></text>
</svg>
