<?xml version="1.0" encoding="utf-8"?>
<!-- Generator: Adobe Illustrator 17.1.0, SVG Export Plug-In . SVG Version: 6.00 Build 0)  -->
<!DOCTYPE svg PUBLIC "-//W3C//DTD SVG 1.1//EN" "http://www.w3.org/Graphics/SVG/1.1/DTD/svg11.dtd">
<svg version="1.1" id="Layer_1" xmlns="http://www.w3.org/2000/svg" xmlns:xlink="http://www.w3.org/1999/xlink" x="0px" y="0px"
	 viewBox="0 0 916.744 254.987" enable-background="new 0 0 916.744 254.987" xml:space="preserve">
<g>
	<path d="M103.98,165.861h25.965l6.92-22.195c-11.925,3.324-23.987,6.75-36.185,10.281L103.98,165.861z"/>
	<path d="M69.287,168.262l0.262-5.161c-5.685,1.697-11.399,3.418-17.141,5.161H69.287z"/>
	<path d="M72.124,112.405c0.873-18.329,1.746-41.02,2.401-60.876h0.436c3.709,19.202,8.51,40.148,13.311,57.603l11.102,40.093
		c12.06-4.166,25.409-8.666,39.939-13.405l8.525-27.341c5.674-17.238,11.783-38.185,16.583-56.95h0.436
		c0,21.383,0.654,42.766,1.309,60.44l0.642,15.055c10.014-3.142,20.473-6.356,31.335-9.617L193.004,21.2h-43.639l-15.492,48.875
		c-5.018,16.364-10.037,35.784-13.964,52.802h-0.872c-3.273-17.236-7.637-35.565-12.438-52.584L92.197,21.2H47.904l-9.382,147.062
		h8.018c6.438-2.43,14.194-5.308,23.182-8.56L72.124,112.405z"/>
	<path d="M168.566,168.262h32.292l-2.203-41.247c-10.383,2.7-20.882,5.48-31.492,8.341L168.566,168.262z"/>
	<path d="M255.416,21.2h-33.167v89.093c10.724-3.109,21.785-6.243,33.167-9.384V21.2z"/>
	<path d="M222.249,168.262h33.167v-55.504c-10.918,2.645-21.972,5.379-33.167,8.208V168.262z"/>
	<path d="M275.49,168.262h30.548v-44.293c0-8.024-0.054-15.656-0.16-23.03c-10.001,2.26-20.132,4.6-30.388,7.019V168.262z"/>
	<path d="M369.313,125.497h-0.435c-4.608-11.298-10.035-23.389-15.78-34.857c-9.858,2.073-19.853,4.224-29.983,6.456
		c2.627,5.001,5.258,9.867,7.797,14.437l31.421,56.73h34.909v-86.57c-9.93,1.937-20.009,3.954-30.243,6.057
		C367.36,100.832,368.075,113.253,369.313,125.497z"/>
	<path d="M397.242,21.2h-30.546v42.766c0,2.99,0.014,5.929,0.039,8.837c10.028-2.295,20.203-4.557,30.507-6.779V21.2z"/>
	<path d="M304.51,59.602h0.873c3.311,8.173,7.267,16.736,11.435,25.159c9.647-2.413,19.457-4.808,29.426-7.177
		c-0.456-0.827-0.91-1.677-1.368-2.489L314.328,21.2H275.49v74.256c9.835-2.631,19.879-5.258,30.125-7.869
		C305.369,77.895,305.012,68.623,304.51,59.602z"/>
	<path d="M417.541,168.262h93.606v-27.273h-60.441v-34.911h54.112V79.022h-54.112V71.77c-10.847,1.908-21.903,3.918-33.165,6.034
		V168.262z"/>
	<path d="M450.706,48.474h36.267c6.998-1.225,14.04-2.421,21.118-3.59V21.2h-90.55v40.535c10.923-2.258,21.982-4.464,33.165-6.609
		V48.474z"/>
	<path d="M569.409,20.109c-17.893,0-33.603,1.31-44.294,3.056v18.978c29.348-4.605,59.308-8.681,89.688-12.064
		C604.422,22.963,589.766,20.109,569.409,20.109z"/>
	<path d="M597.556,65.276c0,12.873-9.819,21.164-26.403,21.164h-13.091V55.081c-10.704,1.436-21.683,2.979-32.947,4.64v108.54
		h32.947v-57.821h9.819c13.746,0.218,20.074,5.02,24.219,23.566c4.147,18.108,7.855,29.892,10.038,34.255h34.038
		c-2.837-5.673-7.2-24.873-11.782-41.674c-3.71-13.528-9.383-23.129-19.637-27.274v-0.655c12.655-4.582,25.965-17.455,25.965-36.002
		c0-5.897-0.913-11.212-2.683-15.911c-11.647,1.206-23.728,2.549-36.254,4.05C595.511,54.187,597.556,59.024,597.556,65.276z"/>
	<path d="M669.782,21.2h-36.439l2.144,6.692c11.716-1.174,23.487-2.24,35.302-3.19L669.782,21.2z"/>
	<path d="M714.729,84.04c-5.018,16.802-9.601,34.256-13.31,51.931h-0.655c-3.49-18.329-8.073-34.911-13.091-52.586l-11.808-41.043
		c-11.073,0.888-22.661,1.913-34.756,3.09l39.364,122.83h38.838l44.05-130.791c-10.725,0.306-22.45,0.762-35.148,1.412
		L714.729,84.04z"/>
	<path d="M841.471,37.903c-8.881-0.482-26.9-1.177-53.647-0.909l-39.926,131.268h34.258l10.472-37.747h42.111l11.345,37.747h36.002
		L841.471,37.903z M797.428,105.641l8.728-31.202c2.401-8.51,4.581-19.638,6.764-28.365h0.437c2.182,8.727,4.8,19.637,7.419,28.365
		l9.165,31.202H797.428z"/>
</g>
<g>
	<path d="M103.507,216.438c-0.27-5.022-0.594-10.908-0.54-15.282h-0.162c-1.134,4.158-2.484,8.693-4.05,13.446l-5.886,17.496h-3.24
		l-5.454-17.064c-1.566-4.968-2.862-9.612-3.78-13.878h-0.162c-0.108,4.481-0.324,10.206-0.648,15.605l-0.864,15.553h-4.266
		l2.43-36.396h5.562l5.616,17.334c1.404,4.536,2.538,8.425,3.456,12.312h0.108c0.918-3.834,2.052-7.668,3.51-12.312l5.778-17.334
		h5.616l2.214,36.396h-4.428L103.507,216.438z"/>
	<path d="M156.966,213.792c0,12.799-6.696,19.062-14.958,19.062c-8.586,0-14.472-7.183-14.472-18.522
		c0-11.664,6.264-18.954,15.012-18.954C151.351,195.378,156.966,202.722,156.966,213.792z M132.288,214.278
		c0,7.668,3.402,14.796,9.99,14.796c6.642,0,9.936-7.182,9.936-15.12c0-7.074-3.024-14.796-9.936-14.796
		C135.42,199.158,132.288,206.502,132.288,214.278z"/>
	<path d="M176.784,196.404c1.998-0.433,4.86-0.757,7.83-0.757c4.32,0,7.236,0.757,9.396,2.593c1.782,1.458,2.862,3.618,2.862,6.426
		c0,3.564-2.268,6.643-5.994,7.992v0.162c3.726,0.918,7.29,3.888,7.29,9.126c0,3.078-1.134,5.508-2.97,7.236
		c-2.376,2.376-6.21,3.401-11.665,3.401c-3.078,0-5.292-0.216-6.75-0.378V196.404z M181.32,211.362h3.564
		c4.482,0,7.398-2.646,7.398-6.265c0-3.941-2.7-5.939-7.344-5.939c-1.836,0-2.916,0.162-3.618,0.324V211.362z M181.32,228.805
		c0.81,0.162,1.944,0.216,3.402,0.216c4.698,0,8.694-1.998,8.694-7.128c0-4.969-4.05-7.128-8.802-7.128h-3.294V228.805z"/>
	<path d="M222.576,195.918v36.396h-4.536v-36.396H222.576z"/>
	<path d="M244.337,195.918h4.536v32.562h13.932v3.834h-18.468V195.918z"/>
	<path d="M298.931,215.196h-12.582v13.284h14.148v3.834h-18.685v-36.396h17.928v3.834h-13.392v11.664h12.582V215.196z"/>
	<path d="M376.906,199.806h-9.774v-3.888h24.085v3.888h-9.774v32.509h-4.536V199.806z"/>
	<path d="M426.424,215.196h-12.582v13.284h14.148v3.834h-18.685v-36.396h17.929v3.834h-13.393v11.664h12.582V215.196z"/>
	<path d="M470.218,231.288c-1.512,0.811-4.481,1.513-8.262,1.513c-9.342,0-16.254-6.265-16.254-18.307
		c0-12.312,7.56-19.062,17.172-19.062c3.834,0,6.318,0.811,7.398,1.404l-1.08,3.726c-1.513-0.756-3.511-1.296-6.21-1.296
		c-7.129,0-12.475,4.969-12.475,14.959c0,9.611,4.806,14.688,12.312,14.688c2.483,0,4.968-0.54,6.534-1.296L470.218,231.288z"/>
	<path d="M494.193,195.918v15.336h15.391v-15.336h4.536v36.396h-4.536V215.25h-15.391v17.064h-4.536v-36.396H494.193z"/>
	<path d="M535.881,232.314v-36.396h4.807L550.84,213.9c2.321,4.158,4.374,8.315,5.939,12.096h0.108
		c-0.378-5.13-0.486-9.666-0.486-15.498v-14.58h4.212v36.396h-4.481l-10.206-18.145c-2.215-3.996-4.374-8.1-6.049-12.258
		l-0.162,0.054c0.324,4.698,0.378,9.126,0.378,15.66v14.688H535.881z"/>
	<path d="M609.807,213.792c0,12.799-6.695,19.062-14.958,19.062c-8.586,0-14.472-7.183-14.472-18.522
		c0-11.664,6.264-18.954,15.012-18.954C604.191,195.378,609.807,202.722,609.807,213.792z M585.129,214.278
		c0,7.668,3.401,14.796,9.99,14.796c6.642,0,9.936-7.182,9.936-15.12c0-7.074-3.023-14.796-9.936-14.796
		C588.261,199.158,585.129,206.502,585.129,214.278z"/>
	<path d="M629.624,195.918h4.536v32.562h13.933v3.834h-18.469V195.918z"/>
	<path d="M692.427,213.792c0,12.799-6.696,19.062-14.958,19.062c-8.586,0-14.473-7.183-14.473-18.522
		c0-11.664,6.265-18.954,15.013-18.954C686.811,195.378,692.427,202.722,692.427,213.792z M667.749,214.278
		c0,7.668,3.401,14.796,9.989,14.796c6.643,0,9.937-7.182,9.937-15.12c0-7.074-3.024-14.796-9.937-14.796
		C670.881,199.158,667.749,206.502,667.749,214.278z"/>
	<path d="M737.03,230.91c-1.943,0.756-5.67,1.782-9.773,1.782c-4.807,0-8.91-1.242-12.097-4.428c-2.97-2.971-4.86-7.83-4.86-13.824
		c0.055-11.881,7.398-18.9,17.875-18.9c3.618,0,6.479,0.756,7.938,1.458l-1.08,3.78c-1.674-0.757-3.779-1.351-6.912-1.351
		c-7.56,0-13.067,4.969-13.067,14.742c0,9.828,5.13,14.742,12.42,14.742c2.592,0,4.266-0.378,5.13-0.81v-11.179h-6.534v-3.672
		h10.962V230.91z"/>
	<path d="M762.302,195.918v36.396h-4.536v-36.396H762.302z"/>
	<path d="M801.181,215.196h-12.582v13.284h14.148v3.834h-18.685v-36.396h17.929v3.834h-13.393v11.664h12.582V215.196z"/>
	<path d="M821.7,226.86c1.836,1.188,4.645,2.106,7.452,2.106c4.536,0,7.183-2.484,7.183-6.211c0-3.348-1.944-5.346-6.265-7.29
		c-5.021-2.052-8.802-5.292-8.802-10.26c0-5.616,4.481-9.774,11.178-9.774c3.24,0,5.778,0.811,7.128,1.62l-1.188,3.78
		c-1.134-0.648-3.294-1.566-6.156-1.566c-4.536,0-6.372,2.862-6.372,5.347c0,3.456,2.106,5.076,6.643,7.128
		c5.67,2.646,8.424,5.724,8.424,10.692c0,5.777-4.212,10.368-11.988,10.368c-3.187,0-6.696-0.973-8.37-2.106L821.7,226.86z"/>
</g>
</svg>
